<svg width="50" height="64" viewBox="0 0 50 64" fill="none" xmlns="http://www.w3.org/2000/svg">
<path d="M38.5981 62.813C38.0664 62.813 37.5787 62.821 37.0919 62.811C36.3179 62.7951 35.5448 62.7632 34.7708 62.7432C33.4482 62.7083 32.1215 62.7342 30.8049 62.6255C29.8722 62.5487 28.9566 62.2824 28.0299 62.1198C27.5292 62.032 27.0215 61.9911 26.5188 61.9153C25.6699 61.7866 24.8191 61.6719 23.9782 61.5044C23.3239 61.3737 22.6875 61.1602 22.0381 61.0036C20.4731 60.6266 18.9011 60.2795 17.3401 59.8855C15.9795 59.5423 14.627 59.1633 13.2774 58.7763C12.4355 58.5349 11.5917 58.2855 10.7748 57.9743C10.0286 57.69 9.30149 57.3439 8.5913 56.9759C7.72151 56.526 6.87865 56.0253 5.99389 55.5305C5.90911 55.5844 5.86522 55.6652 6.01983 55.7699C6.56444 56.139 7.10707 56.511 7.65268 56.8781C7.80529 56.9809 7.96688 57.0706 8.17835 57.1993C7.96289 57.2921 7.80031 57.3379 7.66365 57.4247C7.10208 57.7848 6.53851 58.1449 5.99389 58.5289C4.83284 59.3488 3.78052 60.2924 2.84489 61.3637C2.71622 61.5103 2.58256 61.5772 2.38306 61.5722C1.77162 61.5582 1.15917 61.5662 0.546729 61.5632C0.205595 61.5612 0.14475 61.5103 0.106846 61.1612C0.0619603 60.7583 0.0260515 60.3533 0.00211233 59.9483C-0.00287501 59.8565 0.0390186 59.7468 0.0928818 59.669C0.379155 59.2591 0.66842 58.8511 0.970652 58.4531C1.49432 57.7629 2.12173 57.1913 2.86584 56.7355C3.40647 56.4053 4.00894 56.137 4.34807 55.5485C4.41391 55.4338 4.46777 55.3131 4.53659 55.2004C4.57949 55.1305 4.62736 55.0488 4.69419 55.0138C4.9685 54.8702 5.02236 54.6697 4.82686 54.3984C4.42388 53.8398 3.99098 53.3022 3.61294 52.7276C2.89876 51.6414 2.16562 50.5621 1.53223 49.429C0.910804 48.3188 0.594607 47.082 0.424041 45.8232C0.230532 44.3928 0.359205 42.9744 0.815048 41.6029C0.948708 41.2019 1.17912 40.8079 1.45442 40.4867C1.85142 40.0239 2.1726 39.5252 2.45688 38.9905C2.76908 38.404 3.2349 37.9362 3.73563 37.4355C3.76356 37.5991 3.79648 37.7068 3.79847 37.8165C3.81443 38.6364 3.8264 39.4574 3.83637 40.2783C3.85233 41.584 4.16454 42.8138 4.78197 43.9639C4.89967 44.1824 5.02436 44.3968 5.14605 44.6133C5.17098 44.6043 5.19592 44.5953 5.22086 44.5863C5.17398 44.4168 5.15004 44.2352 5.07523 44.0786C4.58846 43.0572 4.26329 42.0109 4.24833 40.8538C4.23436 39.8214 4.05981 38.792 3.97003 37.7597C3.91717 37.1582 3.89024 36.5537 3.85533 35.9513C3.80246 35.0486 3.73164 34.1468 3.7077 33.2441C3.67079 31.9025 3.77952 30.5689 4.00395 29.2453C4.18748 28.161 4.30618 27.0618 4.55654 25.9936C4.86177 24.6939 5.00042 23.3802 5.11812 22.0575C5.17797 21.3922 5.25178 20.7269 5.34355 20.0656C5.41935 19.524 5.69166 19.0562 6.08267 18.6941C6.50759 18.3021 7.08113 18.0956 7.59583 18.3809C8.17037 18.6981 8.81872 18.6821 9.39126 18.9664C10.3219 19.4292 11.2316 19.913 12.0116 20.6122C12.7916 21.3094 13.5846 21.9927 14.3577 22.6969C15.013 23.2944 15.6683 23.8939 16.2877 24.5273C16.8942 25.1467 17.4638 25.803 18.0353 26.4564C18.9121 27.4578 19.7789 28.4673 20.6437 29.4797C21.5883 30.5839 22.5279 31.6931 23.4655 32.8033C24.1478 33.6102 24.863 34.3942 25.4924 35.2421C25.9452 35.8515 26.3033 36.5368 26.6634 37.2091C27.228 38.2644 27.7826 39.3267 28.2962 40.4069C28.7491 41.3595 29.162 42.3321 29.5531 43.3116C30.2353 45.0192 30.8737 46.7438 31.558 48.4505C31.7994 49.053 32.0707 49.6565 32.4248 50.1961C32.8537 50.8504 33.3654 51.4529 33.8741 52.0504C34.5952 52.8982 35.3473 53.7221 36.0845 54.556C36.2909 54.7894 36.5403 54.9989 36.6869 55.2652C36.8854 55.6243 37.041 56.0163 37.1518 56.4123C37.4191 57.3639 37.6495 58.3254 37.8939 59.283C37.9068 59.3359 37.9108 59.3907 37.9248 59.4795C37.3762 59.3798 36.8405 59.287 36.3059 59.1843C34.4456 58.8282 32.5854 58.4731 30.7261 58.11C29.7186 57.9135 28.6942 57.7698 27.7167 57.4726C27.0065 57.2571 26.3582 56.8362 25.6889 56.4941C23.9613 55.6113 22.5728 54.2787 21.1275 53.0259C20.3434 52.3466 19.5664 51.6494 18.8592 50.8913C17.8637 49.827 17.0777 48.6031 16.3895 47.3174C15.9317 46.4606 15.415 45.6327 15.001 44.7559C14.5192 43.7345 14.0983 42.6832 13.6953 41.6288C13.3223 40.6533 12.9732 39.6658 12.6759 38.6644C12.3458 37.5552 12.0864 36.4241 11.7942 35.3039C11.7852 35.27 11.7563 35.2421 11.6834 35.2241C11.7652 35.656 11.8331 36.0919 11.9328 36.5198C12.24 37.8514 12.5193 39.191 12.8864 40.5057C13.1826 41.565 13.5916 42.5924 13.9487 43.6347C14.1961 44.3559 14.4444 45.0771 14.6778 45.8032C14.7018 45.879 14.6569 46.0007 14.605 46.0736C14.4185 46.3339 14.1691 46.4875 13.842 46.5563C13.1996 46.69 12.5692 46.8855 11.9248 47.0122C11.6046 47.075 11.2665 47.0391 10.9363 47.0521C10.8386 47.0561 10.7418 47.077 10.5753 47.0989C10.9433 47.4102 11.2495 47.6865 11.5727 47.9398C12.4186 48.6041 13.2764 49.2535 14.1213 49.9188C15.3362 50.8764 16.5321 51.8589 17.758 52.8015C19.1704 53.8877 20.5559 55.0268 22.2905 55.5914C23.1862 55.8826 24.0939 56.139 24.9817 56.4532C25.4575 56.6218 25.9402 56.8242 26.3542 57.1075C27.1432 57.6472 28.0409 57.8636 28.9406 58.0521C30.4797 58.3753 32.0328 58.6267 33.5768 58.9269C34.0536 59.0197 34.5145 59.1952 34.9902 59.301C35.6695 59.4526 36.3558 59.5753 37.038 59.7129C37.2226 59.7498 37.4041 59.8067 37.5906 59.8346C37.7692 59.8615 37.8679 59.9353 37.9138 60.1229C38.1273 60.9986 38.3557 61.8714 38.5961 62.813H38.5981ZM10.67 47.0211C10.67 46.8905 10.676 46.8157 10.67 46.7409C10.5842 45.7564 10.4855 44.7719 10.4147 43.7854C10.3847 43.3734 10.3867 42.9545 10.4197 42.5425C10.4875 41.6967 10.6361 40.8558 10.661 40.01C10.6969 38.822 10.661 37.631 10.6361 36.442C10.6211 35.7338 10.5683 35.0266 10.5244 34.3204C10.5194 34.2426 10.4536 34.1678 10.4157 34.092C10.3788 34.1049 10.3419 34.1169 10.3049 34.1299C10.3049 34.7134 10.3049 35.2969 10.3049 35.8804C10.3049 36.6355 10.3309 37.3926 10.298 38.1467C10.265 38.8998 10.1653 39.6499 10.1134 40.402C10.0885 40.759 10.1204 41.1201 10.1015 41.4782C10.0665 42.1156 9.98875 42.751 9.97179 43.3884C9.94885 44.2402 9.96581 45.092 9.96581 45.9868C8.67409 45.3713 7.53498 44.6412 6.20137 44.327C6.32306 44.5065 6.44774 44.705 6.62529 44.7828C7.83921 45.3125 9.00425 45.9249 10.1015 46.668C10.271 46.7827 10.4506 46.8845 10.672 47.0211H10.67Z" fill="#1F94E8"/>
<path d="M34.1194 18.8474C34.6511 20.3037 35.3383 21.7011 35.2984 23.329C34.9603 23.308 34.5952 23.299 34.2341 23.2601C33.8032 23.2143 33.3753 23.1414 32.9454 23.0826C32.1195 22.9689 31.4711 22.539 30.9116 21.9475C30.6971 21.7211 30.4817 21.4966 30.2642 21.2722C29.7725 20.7655 29.7086 20.0972 29.57 19.4548C29.4912 19.0887 29.6049 18.8045 29.8343 18.5202C30.2064 18.0584 30.5345 17.5616 30.9006 17.0948C31.2018 16.7108 31.533 16.3497 31.8442 15.9737C31.914 15.8899 31.9589 15.7861 32.0158 15.6924C32.0008 15.6704 31.9858 15.6485 31.9709 15.6265C31.9021 15.6535 31.8143 15.6624 31.7684 15.7113C31.2078 16.2958 30.6532 16.8863 30.0986 17.4768C29.95 17.6344 29.8144 17.806 29.6558 17.9536C29.0493 18.5202 28.9715 19.2204 29.1381 19.9795C29.2069 20.2917 29.3236 20.5949 29.3805 20.9091C29.4273 21.1705 29.554 21.3121 29.8094 21.357C29.8702 21.368 29.9271 21.4029 29.9979 21.4328C29.941 21.4986 29.8942 21.5525 29.8403 21.6143C30.6802 22.6058 31.6996 23.2731 32.9783 23.5105C33.7105 23.6462 34.4456 23.7699 35.1777 23.9115C35.2456 23.9245 35.3413 24.0312 35.3463 24.1C35.4131 25.0875 35.462 26.077 35.5268 27.0655C35.5737 27.7807 35.6725 28.4948 35.6834 29.21C35.6964 30.008 35.6515 30.808 35.6047 31.6059C35.5598 32.358 35.484 33.1091 35.4101 33.8592C35.3323 34.6572 35.2486 35.4542 35.1568 36.2502C35.0371 37.2985 34.8615 38.3428 34.7927 39.3942C34.694 40.9083 34.6271 42.4285 34.6241 43.9456C34.6202 45.8069 34.684 47.6711 35.1348 49.4905C35.3114 50.2027 35.5837 50.891 35.7872 51.5972C36.0974 52.6714 36.3867 53.7527 36.6849 54.83C36.661 54.8439 36.636 54.8579 36.6121 54.8718C35.6695 53.7587 34.7119 52.6585 33.7903 51.5283C33.2905 50.9159 32.7699 50.2965 32.4068 49.6032C31.923 48.6806 31.5769 47.6861 31.1849 46.7166C30.754 45.6513 30.35 44.574 29.9141 43.5107C29.4433 42.3616 28.9875 41.2046 28.4528 40.0844C27.8005 38.7159 27.0753 37.3833 26.3781 36.0367C26.1926 35.6776 25.9342 35.3415 25.8235 34.9614C25.7367 34.6632 25.7976 34.3101 25.8414 33.9879C25.9951 32.8588 26.1566 31.7316 26.3412 30.6075C26.4908 29.6978 26.6554 28.7901 26.8529 27.8894C27.1162 26.6864 27.3596 25.4735 27.7237 24.2995C27.998 23.4148 28.4428 22.5819 28.8229 21.73C28.8967 21.5635 28.8638 21.4737 28.79 21.2961C28.4977 20.5899 27.8344 20.7775 27.3267 20.6119C26.6853 20.4024 26.005 20.2947 25.3876 20.0333C25.0165 19.8757 24.7103 19.5316 24.4161 19.2314C23.8435 18.6459 23.6859 17.8808 23.5473 17.1058C23.4854 16.7577 23.3159 16.4285 23.258 16.0804C23.1034 15.1478 23.3548 14.3059 23.9293 13.5648C24.2874 13.1029 24.6744 12.6651 25.0385 12.2072C25.0874 12.1454 25.0774 12.0337 25.0874 11.9449C25.1183 11.6746 25.1462 11.4033 25.1851 11.0432C25.0714 11.0103 24.8769 10.9265 24.6744 10.9015C24.2435 10.8487 23.8006 10.8676 23.3787 10.7818C22.8949 10.6821 22.4092 10.5415 21.9573 10.344C21.3558 10.0806 20.7803 9.75545 20.2058 9.43526C19.4766 9.02929 18.8063 8.54253 18.2587 7.90415C18.1639 7.79343 18.0832 7.75653 17.9475 7.8453C17.8996 7.87622 17.7839 7.86226 17.734 7.82336C16.5461 6.90968 15.8857 5.71671 15.9436 4.20155C15.9845 3.14225 16.2987 2.16972 17.1994 1.50042C17.4697 1.29893 17.5306 1.0745 17.4139 0.717405C16.4653 1.39069 15.9157 2.31634 15.5456 3.36568C15.1546 4.47386 15.5795 5.5212 15.8359 6.61941C14.7287 6.99446 13.6394 7.40442 12.5253 7.7286C11.4221 8.04978 10.2939 8.28518 9.17677 8.55849C9.17279 8.59739 9.1688 8.63629 9.16481 8.67619C9.65057 8.9066 10.1353 9.13802 10.6211 9.36843C10.6211 9.33851 10.6211 9.30858 10.6201 9.27866C10.7737 9.23876 10.9263 9.16295 11.0799 9.16395C12.4325 9.17293 13.7771 9.09313 15.1167 8.89264C15.394 8.85075 15.6932 8.9475 15.9815 8.9874C17.0727 9.13901 18.1649 9.29063 19.2552 9.44823C19.3739 9.46519 19.4976 9.50309 19.6003 9.56294C21.1324 10.4607 22.7194 11.2407 24.429 11.8521C24.1966 12.1853 23.9622 12.5085 23.7408 12.8416C23.1782 13.6875 22.7463 14.5981 22.5059 15.5836C22.4281 15.9018 22.494 16.2549 22.494 16.6539C22.2087 16.6539 21.9104 16.6479 21.6122 16.6539C20.4432 16.6799 19.2741 16.7347 18.1051 16.7287C17.3899 16.7247 16.6747 16.64 15.9615 16.5741C15.0698 16.4913 14.1751 16.4185 13.2893 16.2899C12.3108 16.1472 11.3153 16.0285 10.3727 15.7462C9.42415 15.462 8.45561 15.1667 7.61574 14.5962C6.71204 13.9827 5.77741 13.4102 4.91061 12.7498C3.5371 11.7035 2.2384 10.5674 1.24193 9.13203C0.705292 8.359 0.546695 7.45429 0.334235 6.56455C0.0898555 5.54115 0.610533 4.75116 1.0584 3.92226C1.47733 3.14823 2.20049 2.9258 2.98051 2.80111C4.34704 2.58267 5.71656 2.38317 7.08409 2.17271C7.80027 2.06199 8.51945 1.95925 9.23064 1.8206C9.50394 1.76774 9.75231 1.60116 10.0236 1.52435C11.0181 1.24307 12.0056 0.912908 13.018 0.724387C14.2459 0.495967 15.4897 0.346347 16.7446 0.291486C17.6074 0.25458 18.4642 0.0840134 19.327 0.0102008C19.716 -0.023713 20.113 0.0371324 20.507 0.0451122C21.1873 0.0590767 21.8705 0.0331426 22.5478 0.0850108C23.0984 0.127902 23.642 0.25857 24.1867 0.357319C24.2565 0.370286 24.3303 0.414175 24.3832 0.463051C25.1273 1.15928 25.8863 1.84155 26.5995 2.5677C26.8768 2.84999 27.0693 3.22304 27.2688 3.57315C27.4923 3.96615 27.6828 4.37811 27.8823 4.78408C27.9182 4.85789 27.9571 4.94467 27.9511 5.02247C27.8932 5.84039 27.8294 6.65732 27.7616 7.47424C27.7426 7.70366 27.7067 7.93208 27.6698 8.23032C28.0728 7.90515 28.1635 7.49619 28.2553 7.10518C28.3471 6.71318 28.383 6.30721 28.4538 5.83341C28.5855 6.00298 28.6782 6.13564 28.785 6.25534C28.8638 6.34312 28.9496 6.43787 29.0523 6.48775C29.3665 6.64036 29.6877 6.782 30.0129 6.91067C30.3689 7.05132 30.723 7.21291 31.0941 7.2947C32.6252 7.63284 34.0715 8.19142 35.465 8.89763C36.0106 9.17393 36.5802 9.41531 37.0899 9.74747C37.4639 9.99085 37.7682 10.3459 38.0844 10.6711C38.4265 11.0222 38.7507 11.3913 39.0738 11.7604C39.6883 12.4626 40.2538 13.2037 40.6429 14.0575C41.0678 14.9921 41.5017 15.9258 41.8687 16.8833C42.3346 18.0993 42.6458 19.3481 42.6907 20.6717C42.7236 21.6363 42.945 22.5948 43.0866 23.5554C43.2363 24.5718 43.4238 25.5842 43.5275 26.6047C43.5834 27.1533 43.4916 27.7148 43.4796 28.2714C43.4667 28.8849 43.4737 29.4993 43.4607 30.1137C43.4447 30.9147 43.4048 31.7147 43.3969 32.5156C43.3839 33.8393 43.4068 35.1629 43.3809 36.4856C43.3659 37.2287 43.3859 37.9947 43.2123 38.7069C42.8133 40.3537 42.3346 41.9836 41.8338 43.6035C41.4418 44.8713 40.9571 46.1101 40.5321 47.3679C40.0354 48.8402 39.5576 50.3194 39.0758 51.7967C39.026 51.9483 39.027 52.1198 38.9591 52.2595C38.7527 52.6814 38.8564 53.0634 39.0689 53.4385C39.5796 54.3402 40.1252 55.225 40.601 56.1446C41.3999 57.6867 42.0533 59.2946 42.6577 60.9225C42.8113 61.3354 43.0717 61.7085 43.2163 62.1234C43.3051 62.3768 43.2772 62.675 43.2722 62.9523C43.2722 62.9872 43.0906 63.0491 42.9939 63.0481C41.9086 63.0321 40.8234 63.0052 39.7382 62.9823C39.2893 62.9733 39.2863 62.9763 39.1875 62.5324C38.9661 61.5309 38.7706 60.5235 38.5212 59.53C38.3198 58.7281 38.0355 57.947 37.824 57.1471C37.5856 56.2464 37.3891 55.3357 37.1727 54.429C37.0171 53.7786 36.8265 53.1353 36.7148 52.4779C36.635 52.0091 36.654 51.5224 36.639 51.0436C36.6211 50.469 36.5722 49.8905 36.6121 49.319C36.6959 48.136 36.7717 46.947 36.9602 45.778C37.1158 44.8154 37.1707 43.8508 37.2505 42.8853C37.3662 41.4958 37.4799 40.1054 37.8539 38.7528C38.233 37.3833 38.3168 35.9719 38.4833 34.5714C38.607 33.5321 38.7896 32.4997 38.9073 31.4603C39.0828 29.9142 38.9182 28.3911 38.5003 26.8939C38.1532 25.6511 37.824 24.4032 37.452 23.1684C37.3372 22.7863 37.1228 22.4313 36.9253 22.0791C36.5872 21.4767 36.3887 20.7974 35.9109 20.2707C35.3952 19.7022 34.7887 19.2493 34.1184 18.8444L34.1194 18.8474Z" fill="#1F94E8"/>
<path d="M25.2141 0.942383C26.6335 1.17479 28.0709 1.32541 29.3735 1.96578C30.7032 2.61912 31.9051 3.45899 32.9275 4.54523C33.7624 5.43198 34.6152 6.30177 35.4631 7.17655C35.5648 7.28128 35.6865 7.36706 35.7992 7.46182C35.7932 7.49275 35.7873 7.52367 35.7813 7.55459C34.8845 7.47379 33.9878 7.40098 33.0921 7.30921C32.6712 7.26632 32.2463 7.21445 31.8353 7.1177C31.3725 7.00798 30.9226 6.84339 30.4668 6.70175C30.4488 6.69677 30.4339 6.67482 30.4179 6.67482C29.8344 6.68879 29.6768 6.19005 29.4334 5.82498C28.8539 4.95519 28.3721 4.01258 27.7257 3.19865C27.1931 2.52835 26.4859 1.9967 25.8465 1.41418C25.653 1.23863 25.4276 1.09899 25.2161 0.94338L25.2141 0.942383Z" fill="#1F94E8"/>
<path d="M49.9951 63.1229C49.4654 63.1229 48.9767 63.1129 48.4879 63.1249C47.4216 63.1498 46.3563 63.1887 45.291 63.2156C44.932 63.2246 44.5729 63.2306 44.2148 63.2077C44.1061 63.2007 43.9564 63.1199 43.9056 63.0281C43.2712 61.88 42.6877 60.709 42.2817 59.4562C42.1401 59.0183 41.9655 58.5914 41.783 58.0986C42.7425 58.2223 43.6622 58.338 44.5789 58.4657C44.6567 58.4767 44.7235 58.5754 44.7913 58.6373C45.6122 59.3884 46.3883 60.1973 47.267 60.8736C48.0151 61.4491 48.853 61.9279 49.7986 62.1563C49.8764 62.1753 49.9771 62.29 49.9851 62.3688C50.0091 62.6112 49.9941 62.8575 49.9941 63.1219L49.9951 63.1229Z" fill="#1F94E8"/>
<path d="M21.0776 29.0438C22.1609 28.6439 23.2012 28.2588 24.2426 27.8748C24.879 27.6404 25.5154 27.408 26.1517 27.1736C26.453 27.0619 26.5607 27.1427 26.4989 27.4589C26.2924 28.5102 26.06 29.5555 25.8725 30.6099C25.6799 31.6931 25.5303 32.7843 25.3608 33.8716C25.3438 33.9783 25.3239 34.085 25.3029 34.2047C23.8965 32.4871 22.508 30.7904 21.0776 29.0429V29.0438Z" fill="#1F94E8"/>
</svg>
